<svg xmlns="http://www.w3.org/2000/svg" aria-hidden="true" >
  <defs>
    <symbol id="icon-arrow-hero" viewBox="0 0 60 32">
      <path d="M2 14a2 2 0 1 0 0 4v-4zm57.414 3.414a2 2 0 0 0 0-2.828L46.686 1.858a2 2 0 1 0-2.828 2.828L55.172 16 43.858 27.314a2 2 0 1 0 2.828 2.828l12.728-12.728zM2 18h56v-4H2v4z"/>
    </symbol>
    <symbol id="icon-arrow-projects" viewBox="0 0 32 32">
      <path stroke-linecap="round" stroke-linejoin="round" stroke-width="3.556" d="M3.111 28.889 28.889 3.111m0 0h-24m24 0v24"/>
    </symbol>
    <symbol id="icon-arrow-left" viewBox="0 0 32 32">
      <path stroke-width="2" stroke-linecap="round" stroke-linejoin="round" d="M26.667 16H5.334M13.333 24l-8-8 8-8"/>
    </symbol>
    <symbol id="icon-arrow-right" viewBox="0 0 32 32">
      <path stroke-width="2" stroke-linecap="round" stroke-linejoin="round" d="M5.333 16h21.333M18.667 8l8 8-8 8"/>
    </symbol>
    <symbol id="icon-phone" viewBox="0 0 32 32">
      <path stroke-linecap="round" stroke-linejoin="round" stroke-width="1.333" d="M3 9c0 11.045 8.955 20 20 20h3a3.004 3.004 0 0 0 3-3v-1.829a1.5 1.5 0 0 0-1.136-1.455l-5.897-1.475a1.498 1.498 0 0 0-1.564.556l-1.293 1.724c-.376.501-1.025.723-1.613.507a16.028 16.028 0 0 1-9.524-9.524c-.216-.588.005-1.237.507-1.613l1.724-1.293c.484-.361.703-.979.556-1.564L9.285 4.137A1.498 1.498 0 0 0 7.83 3.001H6.001a3.004 3.004 0 0 0-3 3v3z"/>
    </symbol>
    <symbol id="icon-mail" viewBox="0 0 32 32">
      <path stroke-linecap="round" stroke-linejoin="round" stroke-width="1.333" d="M29 9v14a3.004 3.004 0 0 1-3 3H6a3.004 3.004 0 0 1-3-3V9m26 0a3.004 3.004 0 0 0-3-3H6a3.004 3.004 0 0 0-3 3m26 0v.324a2.998 2.998 0 0 1-1.427 2.555l-10 6.153a3.004 3.004 0 0 1-3.146 0l-10-6.152A3.001 3.001 0 0 1 3 9.325V9"/>
    </symbol>
    <symbol id="icon-location" viewBox="0 0 32 32">
      <path stroke-linecap="round" stroke-linejoin="round" stroke-width="1.333" d="M20 14a4.003 4.003 0 0 1-4 4 4.003 4.003 0 0 1-4-4 4.003 4.003 0 0 1 4-4 4.003 4.003 0 0 1 4 4z"/>
      <path stroke-linecap="round" stroke-linejoin="round" stroke-width="1.333" d="M26 14c0 9.523-10 15-10 15S6 23.523 6 14a10.001 10.001 0 0 1 20 0z"/>
    </symbol>
    <symbol id="icon-ellipse" viewBox="0 0 22 32">
      <path d="M0 30.669c5.651-2.469 9.6-8.108 9.6-14.669s-3.949-12.2-9.6-14.669c1.96-0.856 4.124-1.331 6.4-1.331 8.837 0 16 7.163 16 16s-7.163 16-16 16c-2.276 0-4.44-0.475-6.4-1.331z"></path>
    </symbol>
    <symbol id="icon-done-icon" viewBox="0 0 32 32">
      <path d="M16 2c3.713 0 7.274 1.475 9.899 4.101s4.101 6.186 4.101 9.899-1.475 7.274-4.101 9.899c-2.625 2.626-6.186 4.101-9.899 4.101s-7.274-1.475-9.899-4.101c-2.626-2.625-4.101-6.186-4.101-9.899s1.475-7.274 4.101-9.899c2.626-2.626 6.186-4.101 9.899-4.101zM14.256 18.762l-3.11-3.112c-0.111-0.111-0.244-0.2-0.39-0.26s-0.302-0.091-0.459-0.091c-0.158 0-0.314 0.031-0.459 0.091s-0.278 0.149-0.39 0.26c-0.225 0.225-0.352 0.531-0.352 0.849s0.127 0.624 0.352 0.849l3.96 3.96c0.111 0.112 0.243 0.201 0.389 0.262s0.302 0.092 0.46 0.092 0.314-0.031 0.46-0.092c0.146-0.061 0.278-0.15 0.389-0.262l8.2-8.202c0.113-0.111 0.203-0.243 0.264-0.389s0.094-0.303 0.094-0.461c0.001-0.158-0.030-0.315-0.090-0.462s-0.149-0.28-0.261-0.392c-0.112-0.112-0.245-0.201-0.391-0.261s-0.303-0.091-0.462-0.091-0.315 0.032-0.461 0.094c-0.146 0.061-0.278 0.151-0.39 0.264l-7.354 7.354z"></path>
    </symbol>
    <symbol id="icon-check-mark" viewBox="0 0 32 32">
      <path d="M16 0c4.243 0 8.313 1.686 11.314 4.686s4.686 7.070 4.686 11.314-1.686 8.313-4.686 11.314c-3 3.001-7.070 4.686-11.314 4.686s-8.313-1.686-11.314-4.686c-3.001-3-4.686-7.070-4.686-11.314s1.686-8.313 4.686-11.314c3.001-3.001 7.070-4.686 11.314-4.686zM14.007 19.157l-3.554-3.557c-0.127-0.127-0.279-0.229-0.445-0.297s-0.345-0.104-0.525-0.104c-0.18 0-0.359 0.035-0.525 0.104s-0.318 0.17-0.445 0.297c-0.257 0.257-0.402 0.606-0.402 0.97s0.145 0.713 0.402 0.97l4.526 4.526c0.127 0.128 0.278 0.23 0.445 0.299s0.345 0.105 0.526 0.105c0.18 0 0.359-0.036 0.526-0.105s0.318-0.171 0.445-0.299l9.371-9.374c0.129-0.127 0.232-0.278 0.302-0.445s0.107-0.346 0.108-0.527c0.001-0.181-0.034-0.36-0.103-0.528s-0.17-0.32-0.298-0.448c-0.128-0.128-0.28-0.23-0.447-0.299s-0.347-0.104-0.528-0.104-0.36 0.037-0.527 0.107c-0.167 0.070-0.318 0.173-0.445 0.302l-8.405 8.405z"></path>
    </symbol>
    <symbol id="icon-art" viewBox="0 0 32 32">
      <path stroke-linejoin="round" stroke-linecap="round" stroke-miterlimit="4" stroke-width="2.6667" d="M17.037 20.001l-5.037-5.037"></path>
      <path stroke-linejoin="round" stroke-linecap="round" stroke-miterlimit="4" stroke-width="2.6667" d="M2.667 29.33c2.667 0 6.144 0.456 7.966-1.367s1.822-4.777 0-6.6c-1.822-1.823-4.777-1.823-6.6 0s0 5.3-1.367 7.966z"></path>
      <path stroke-linejoin="round" stroke-linecap="round" stroke-miterlimit="4" stroke-width="2.6667" d="M10.667 21.33c-0.655-0.655-0.983-0.983-1.168-1.326-0.444-0.823-0.425-1.818 0.050-2.623 0.198-0.336 0.538-0.651 1.218-1.28l13.157-12.183c1.159-1.073 2.959-1.038 4.075 0.078s1.151 2.917 0.078 4.075l-12.183 13.158c-0.63 0.68-0.944 1.020-1.28 1.218-0.805 0.475-1.8 0.495-2.623 0.050-0.343-0.185-0.671-0.513-1.326-1.168z"></path>
    </symbol>
    <symbol id="icon-urgent" viewBox="0 0 32 32">
      <path stroke-linejoin="round" stroke-linecap="round" stroke-miterlimit="4" stroke-width="2.6667" d="M24.217 2.667h-16.434c-0.617 0-1.117 0.5-1.117 1.117 0 3.554 1.412 6.962 3.925 9.475l1.626 1.626c0.161 0.161 0.242 0.242 0.3 0.32 0.352 0.473 0.352 1.121 0 1.594-0.058 0.077-0.139 0.158-0.3 0.32l-1.626 1.626c-2.513 2.513-3.925 5.921-3.925 9.475 0 0.617 0.5 1.117 1.117 1.117h16.434c0.617 0 1.117-0.5 1.117-1.117 0-3.554-1.412-6.962-3.925-9.475l-1.626-1.626c-0.161-0.161-0.242-0.242-0.3-0.32-0.353-0.473-0.353-1.121 0-1.594 0.058-0.077 0.139-0.158 0.3-0.32l1.626-1.626c2.513-2.513 3.925-5.921 3.925-9.475 0-0.617-0.5-1.117-1.117-1.117z"></path>
    </symbol>
    <symbol id="icon-communication" viewBox="0 0 32 32">
      <path stroke-linejoin="round" stroke-linecap="round" stroke-miterlimit="4" stroke-width="2.6667" d="M8.126 14.972c-0.083-0.534-0.126-1.081-0.126-1.638 0-5.891 4.807-10.667 10.737-10.667s10.737 4.776 10.737 10.667c0 1.331-0.245 2.605-0.693 3.779-0.093 0.244-0.14 0.366-0.161 0.461s-0.029 0.161-0.031 0.257c-0.002 0.097 0.011 0.205 0.037 0.42l0.537 4.36c0.058 0.472 0.087 0.708 0.009 0.88-0.069 0.15-0.191 0.27-0.343 0.335-0.173 0.075-0.409 0.040-0.879-0.029l-4.247-0.623c-0.222-0.033-0.333-0.049-0.434-0.048-0.1 0.001-0.169 0.008-0.267 0.028s-0.225 0.068-0.477 0.163c-1.178 0.441-2.454 0.683-3.787 0.683-0.558 0-1.105-0.042-1.64-0.124M10.175 29.333c3.953 0 7.158-3.283 7.158-7.333s-3.205-7.333-7.158-7.333c-3.953 0-7.158 3.283-7.158 7.333 0 0.814 0.13 1.597 0.369 2.329 0.101 0.309 0.152 0.464 0.168 0.57 0.017 0.11 0.020 0.172 0.014 0.284-0.006 0.107-0.033 0.227-0.086 0.469l-0.815 3.682 3.993-0.545c0.218-0.030 0.327-0.045 0.422-0.044 0.1 0.001 0.153 0.006 0.252 0.026 0.093 0.019 0.232 0.067 0.51 0.165 0.731 0.258 1.516 0.398 2.332 0.398z"></path>
    </symbol>
    <symbol id="icon-expertise" viewBox="0 0 32 32">
      <path stroke-linejoin="round" stroke-linecap="round" stroke-miterlimit="4" stroke-width="2.6667" d="M26.667 28c0-1.861 0-2.791-0.23-3.548-0.517-1.705-1.851-3.039-3.556-3.556-0.757-0.23-1.687-0.23-3.548-0.23h-6.667c-1.861 0-2.791 0-3.548 0.23-1.705 0.517-3.038 1.851-3.556 3.556-0.23 0.757-0.23 1.687-0.23 3.548"></path>
      <path stroke-linejoin="round" stroke-linecap="round" stroke-miterlimit="4" stroke-width="2.6667" d="M16 16c3.314 0 6-2.686 6-6s-2.686-6-6-6c-3.314 0-6 2.686-6 6s2.686 6 6 6z"></path>
    </symbol>
    <symbol id="icon-x" viewBox="0 0 32 32">
<path stroke-linejoin="round" stroke-linecap="round" stroke-miterlimit="4" stroke-width="2.6667" d="M24 8l-16 16"></path>
<path stroke-linejoin="round" stroke-linecap="round" stroke-miterlimit="4" stroke-width="2.6667" d="M8 8l16 16"></path>
</symbol>
  </defs>
</svg>